<svg xmlns="http://www.w3.org/2000/svg" width="313" height="117" viewBox="0 0 313 117">
  <defs>
    <style>
      .cls-1 {
        fill: #0f0f0f;
        fill-rule: evenodd;
      }
    </style>
  </defs>
  <path id="Color_Fill_1" data-name="Color Fill 1" class="cls-1" d="M91.54,0.117c11.949-.176,25.135-0.456,34.722,1.732l4.63,0.289C135.223,3.449,141,6.613,141.6,11.661c-0.6.634-.5,1.065-1.447,1.443-1.634,1.009-10.881-.975-13.021-1.443l-9.259-.289a21.094,21.094,0,0,0-6.944,0h-7.813c-3.109.66-7.457,0.567-10.127,1.154v0.289c4.685,0.5,8.816,3.878,12.442,5.772,8.26,4.315,16.547,7.089,24.016,12.121,2.988,2.013,7.9,5.219,6.945,10.1-4.638.523-8.622-.564-13.021-0.577-8.012-.024-15.472.8-22.859,0.866v0.289H100.8c2.482,2.188,6.83,2.4,10.128,3.752,6.756,2.771,14.393,5.511,18.518,10.967,1.773,2.345,4.3,3.51,4.051,7.215l-0.868.289c-1.219.812-3.972,0.126-4.919-.289a27.112,27.112,0,0,1-5.787-3.175c-1.294-.982-1.787-2.426-3.472-3.175-6.835-3.037-13.637-5.087-20.544-8.081-3.378-1.464-7.082-3.5-10.706-4.617l-2.894-.289c-5.4-1.658-14.213-4.485-14.178-11.255a4.364,4.364,0,0,1,1.157-.577c1.6-1.18,4.983-.33,7.234-0.866,9.013-2.146,20-2.27,30.671-2.309V28.689C98.173,22.7,84.455,19.322,74.757,11.95L71.864,8.2a9.807,9.807,0,0,1,.289-2.309c1.185-.359,1.714-1.181,2.6-1.732,2.133-1.319,5.3-2.134,7.813-2.886C84.475,0.7,90.114,1.035,91.54.117Zm18.518,56.565a15.273,15.273,0,0,1,2.315.577,3.087,3.087,0,0,1,.868,2.02,5.417,5.417,0,0,0-.868,1.443h0.29c0.559-1.029.764-1.593,2.315-1.732,1.472,1.3,3.787,1.193,4.05,3.752a4.2,4.2,0,0,0-1.446,2.886h0.289V65.341a15.031,15.031,0,0,0,2.315-3.175,35.992,35.992,0,0,1,5.208,3.175l-1.446,2.886h0.289c0.655-1.127,1.185-2.151,2.893-2.309,0.81,0.823,1.288.709,1.447,2.309-1.8,1.867-2.648,7.214-5.5,7.792-1.373-1.635-3.914-2.015-5.787-3.175-1.9-1.179-3.855-2.863-5.787-4.04-2.345-1.43-4.654-2.126-6.655-3.752C106.455,62.191,108.327,59.348,110.058,56.683ZM104.271,66.5c2.588,0.3,3.752,2.07,5.5,3.175,2.936,1.857,6.117,3.515,8.97,5.195,1.882,1.108,3.9.563,4.051,3.463-0.751.729-.688,1.188-2.025,1.443-0.918-1.088-2.2-1.244-3.473-2.02-2.834-1.734-5.836-3.754-8.68-5.483-1.979-1.2-4.959-1.434-5.787-3.752h0.289A5.634,5.634,0,0,1,104.271,66.5Zm8.1,27.128-1.446,5.483H100.8v3.463h9.838v5.483H100.8v3.464h11.864V117H94.144V99.107H92.408l1.447-5.483h2.6c0.92-4.307,7.571-7.511,5.208-13.853-0.583-1.565-2.027-2.737-2.893-4.04,1.236-1.632,1.713-5.016,4.051-5.483,3.482,3.122,9.313,5.458,13.31,8.081,1.511,0.991,4.2,1.408,4.63,3.463a6.8,6.8,0,0,0-.579.866c-0.54.331-1.617,0.019-2.026,0.289-0.45.743-.115,2.727-0.578,3.463a1.959,1.959,0,0,1-1.158.289c-4.725-3.122-10.329,4.351-11,6.926h6.944Zm-41.956-10.1c0.215,4.494,2.989,11.754,4.34,15.873,0.678,2.067.543,4.756,1.736,6.35v-0.289c1.333-1.976,1.228-5.068,2.025-7.5,1.463-4.466,3.356-9.549,4.051-14.43H92.7c-0.271,2.578-1.579,5.032-2.315,7.215-1.883,5.589-3.425,11.136-5.208,16.451-0.53,1.578-2.08,9.213-2.894,9.812H70.706v-0.289H70.417c-0.472-4.4-2.742-8.8-4.051-12.7C64.046,97.107,62.745,90.07,60,83.523H70.417Zm125.869,0h9.549V117h-9.549V83.523Zm-81.6,10.1h6.945v17.894h11.285V117h-17.94V99.107h-1.737Q113.966,96.365,114.688,93.623Zm15.915,0h7.234q2.025,7.647,4.051,15.3h0.289l4.051-15.3h7.234V94.2c-1.391,2.05-1.473,4.973-2.315,7.5-1.594,4.79-4.116,10.051-4.919,15.3h-8.391Zm23.727,0h18.519q-0.724,2.742-1.447,5.483H161.274v3.463h9.838v5.483h-9.838v3.464h11.864V117H154.619V99.107h-1.736Q153.606,96.365,154.33,93.623Zm20.255,0h19.676V94.2c-0.9,1.208-.8,3.425-1.736,4.618-1.111.72-4.406,0.327-6.077,0.289V117h-6.655V99.107h-6.655V98.53A10.774,10.774,0,0,0,174.585,93.623Zm34.722,0h7.234c1,4.03,4.369,6.7,5.5,10.679h0.289V93.623h6.656V117h-6.945c-1-4.03-4.368-6.7-5.5-10.678h-0.289V117H209.6V99.107h-1.736Zm22.57,0h6.945v7.5h0.289v-0.289l4.919-7.215h7.813V94.2c-1.287.911-7,8.505-7.524,10.1,1.349,1.076,1.917,2.864,2.894,4.329C249.059,111.4,251.258,114.1,253,117h-8.1c-0.893-2.922-3.464-4.823-4.34-7.792h-0.29V109.5c-1.66,1.528-1.517,4.2-1.446,7.5h-6.656V99.107H230.43Q231.153,96.365,231.877,93.623Z"/>
</svg>
