<svg xmlns="http://www.w3.org/2000/svg" width="313" height="117" viewBox="0 0 313 117">
  <defs>
    <style>
      .cls-1 {
        fill: #0f0f0f;
        fill-rule: evenodd;
      }
    </style>
  </defs>
  <path id="Color_Fill_1" data-name="Color Fill 1" class="cls-1" d="M115.894,0H128.21q-0.092,19.894-.181,39.791c0,7.846.685,16.746-1.268,22.894-3.152,9.919-7.843,16.5-15.938,21.44-5.755,3.511-16.484,5.437-24.811,2.725C74.923,83.239,67.276,75.159,63.917,63.775c-1.484-5.027-1.026-12.5.362-17.079,3.407-11.248,10.752-18.947,21.733-22.53,4.433-1.447,12.045-1.937,17.024-.545,5.212,1.457,8.917,3.822,12.858,6.359V0Zm94.719,0h12.315V20.168h23.544V32.523H222.928c-0.161,17.994-1.151,36.276,11.591,41.79,4.317,1.868,10.559,1.546,16.481,1.454V88.122c-5.235.06-10.865,0.3-15.213-.909-10.164-2.829-17.829-8.579-21.733-17.624-3.361-7.787-3.26-18.526-3.26-29.8Q210.7,19.9,210.613,0ZM166.6,22.712c17.069-.214,27.045,8.248,32.056,20.168,3.042,7.236,3.386,17.6.181,25.074A33.263,33.263,0,0,1,180.912,85.76c-2.76,1.153-5.854,1.481-9.056,2.18h-3.078a29.7,29.7,0,0,1-12.135-2.362c-10.122-4.28-16.067-11.008-19.378-22.167-0.908-3.061-1.826-8.5-.9-12.537q0.723-3.088,1.448-6.178c3.439-8.633,9.2-15.623,17.568-19.26a49.671,49.671,0,0,1,7.063-2.18C163.629,22.943,165.609,23.332,166.6,22.712ZM93.437,35.067c-0.6.367-1.582,0.147-2.354,0.363L87.28,36.7c-5.628,2.451-9.64,7.462-11.591,13.627a16.35,16.35,0,0,0-.362,7.268c0.317,1.4.139,2.387,0.543,3.634A20.389,20.389,0,0,0,87.823,74.313c2.214,0.932,6.139,2.453,9.78,1.635,8.022-1.8,13.742-5.376,16.661-12.174l1.449-4.724a19.043,19.043,0,0,0-.9-9.812c-2.535-6.895-6.934-11.474-14.127-13.627A25.649,25.649,0,0,0,93.437,35.067Zm47.088,70.679c-1.217.17-1.752,0.78-3.079,0.909-2.55-5.221-13.009-3.147-11.41,3.089,0.943,3.675,6.625,5.612,10.324,3.088,1.021-.7,1.067-2.295,2.535-2.543a10.944,10.944,0,0,0,2.354.908A8.872,8.872,0,0,1,136.9,116.1c-4.7,1.992-11.033.127-13.04-2.907a11.336,11.336,0,0,1-1.268-3.816c-1.211-5.751,6.3-10.193,12.135-8.539,3.4,0.962,3.749,2.294,5.8,4.36v0.545Zm12.134-5.087c4.926-.1,8.322,1.045,10.142,4,3.056,4.959-.534,10.064-4.346,11.629-6.515,2.674-15.428-2.491-13.221-9.63a9.075,9.075,0,0,1,5.252-5.451A14.832,14.832,0,0,0,152.659,100.659Zm16.843,0.363h3.26v12.537h8.331v2.907H169.5V101.022Zm16.662,0h3.26v15.444h-3.26V101.022Zm7.969,0h3.441c1.685,3.779,4.283,7.52,5.433,11.629a0.664,0.664,0,0,0,.181-0.364c1.4-1.579,3.116-6.431,4.165-8.539,0.372-.747.552-2.381,1.268-2.726h3.441V101.2a13.856,13.856,0,0,0-1.268,2.907c-1.229,2.8-2.763,5.806-4.165,8.54-0.308.6-1.27,3.611-1.63,3.815h-3.8c-1.726-3.883-3.509-7.654-5.252-11.628A29.06,29.06,0,0,1,194.133,101.022Zm-40.568,2.544-2.355.727c-1.272.757-4.078,3.822-2.354,6.177,1.1,4.356,8.737,4.2,10.866.909C162.5,107.084,158,103.455,153.565,103.566Z"/>
</svg>
