<svg xmlns="http://www.w3.org/2000/svg" width="619" height="715" viewBox="0 0 619 715">
  <defs>
    <style>
      .cls-1 {
        fill: #fff;
        fill-rule: evenodd;
      }
    </style>
  </defs>
  <path id="Color_Fill_1" data-name="Color Fill 1" class="cls-1" d="M46.305,222.261L45,280.534s28.046,53.578,76.364,70.059c0,0,3.223-57.379,55.478-53.035,0,0,33.563,4.754,80.28,16.369,0,0,18.4,2.588,58.742-19.643l13.706-6.548s-70.24-9.4-114.872-18.988-92.311-1.846-109.651,36.667L70.455,273.332V239.284l3.916,0.655L154,216.368l22.191-41.9,52.868-30.773S415.023,163.737,418.335,35c0,0-55.836,87.88-185.362,83.809l-73.753,34.7-19.581,38.631ZM175.537,214.4l20.886-25.535h56.131l-26.108,35.357-12.4-9.167Zm97.9,9.167,53.521-43.214,163.171-22.262s-53.883-.774-110.3-27.5c0,0,121.107,30.515,195.153-57.619,0,0,4.2,96.056-107.041,129.642,0,0,44.976,28.935,64.616,76.606l-40.466-17.678s26.93,120.5-79.628,173.511c0,0-37.741,19.539-103.777,33.392,0,0-87.664,13.484-92.028,92.976,0,0,9.478,76.665,109.651,83.154l-27.413-30.773s167.33,1.088,210.817-157.8c0,0-58.784,57.609-169.045,53.69,0,0,189.882-53.993,187.32-202.32,0,0,80.372,138.562-43.077,289.4,0,0-154.919,162.54-321.12,36.011,0,0-116.541-83.1-15.012-211.486,0,0,36.268-41.238,103.124-49.107,0,0,84.616-10.934,105.735-47.8,0,0,23.408-23.426-2.611-40.6l-75.059-47.143H390.923s47.558,58.609-7.18,118.511c0,0-24.261,29.294-128.579,47.8,0,0-86.495,16.081-109.651,94.285,0,0-25.912,63.816,52.215,121.13,0,0-83.557-141.046,123.357-189.88,0,0,112.9-21.1,130.537-98.868,0,0,23.642-61.838-36.55-124.4Z"/>
</svg>
