<?xml version="1.0" encoding="UTF-8"?>
<svg id="Layer_2" data-name="Layer 2" xmlns="http://www.w3.org/2000/svg" viewBox="0 0 146.63 169.68">
  <defs>
    <style>
      .cls-1 {
        fill: #a379bf;
      }

      .cls-1, .cls-2, .cls-3 {
        stroke-width: 0px;
      }

      .cls-2 {
        fill: none;
      }

      .cls-3 {
        fill: #fff;
      }
    </style>
  </defs>
  <g id="Layer_1-2" data-name="Layer 1">
    <g>
      <path class="cls-3" d="M120.25,48.19c.02,1.2-.03,2.41-.16,3.61-.04.4-.09.8-.15,1.2-.06.4-.13.8-.2,1.2-.12.6-.25,1.2-.4,1.8-.08.3-.17.61-.25.91-.27.91-.57,1.8-.91,2.68-.17.44-.36.87-.55,1.3-.39.86-.81,1.7-1.28,2.52-.69,1.23-1.48,2.4-2.35,3.51-.11.15-.23.3-.35.45-.25.29-.52.56-.83.8-.15.11-.31.22-.47.32-.33.19-.67.35-1.03.46-.36.12-.73.19-1.12.23-1.07.11-2.15.18-3.23.21-.36.01-.72.01-1.08.01-.27,0-.54,0-.81-.01-.33,0-.67-.01-1-.03-.2,0-.4-.02-.61-.03-.04,0-.08,0-.12-.01-.2-.01-.41-.02-.61-.04-.12-.01-.24-.01-.36-.03-.07,0-.13-.01-.19-.01-.06-.01-.12-.01-.18-.02-.07,0-.14-.01-.22-.02-.07-.01-.14-.01-.21-.02-.13,0-.26-.02-.4-.04-.13-.01-.26-.03-.39-.05-.12-.01-.23-.02-.34-.04-.14-.01-.28-.03-.41-.05-.08-.01-.15-.02-.23-.03-.07-.01-.14-.02-.22-.04-.11,0-.23-.03-.34-.05-.12-.02-.25-.04-.37-.06-.14-.02-.29-.05-.43-.07-.1-.02-.2-.04-.3-.06-.16-.02-.32-.05-.48-.09-.09-.01-.18-.03-.27-.05-.17-.03-.34-.06-.5-.1-.81-.17-1.6-.36-2.39-.58-.22-.06-.44-.12-.65-.18-.22-.06-.45-.13-.67-.2-.17-.05-.35-.11-.52-.16-.1-.03-.19-.06-.29-.09-.06-.02-.12-.04-.18-.06-.06-.02-.12-.05-.18-.07-.14-.04-.28-.09-.41-.14-.11-.03-.22-.07-.32-.11-.13-.04-.25-.09-.37-.13-.07-.03-.14-.05-.21-.08-.07-.02-.14-.05-.2-.08-.15-.05-.29-.1-.44-.16-.06-.03-.13-.05-.19-.08-.17-.07-.34-.13-.51-.2-.1-.04-.19-.08-.29-.12-.19-.08-.38-.16-.58-.25-.02-.01-.04-.02-.06-.03-.25-.1-.49-.21-.73-.32-.23-.11-.45-.21-.68-.32-.02-.01-.06-.03-.08-.04-.23-.11-.46-.22-.68-.34-.78-.39-1.54-.8-2.29-1.24-.21-.11-.41-.23-.61-.35-.18-.12-.37-.23-.56-.35,0,0-.01-.01-.02-.01-.74-.49-.81-1.56-.12-2.13l2.63-2.2c.75,1.1,1.61,2.09,2.54,2.98,4.73,4.46,11.44,5.99,17.19,3.33,2.65-1.23,4.75-3.18,6.21-5.57.2-.32.38-.64.56-.97.25-.5.49-1.02.69-1.55.28-.7.5-1.43.68-2.17.09-.38.16-.75.23-1.13.06-.38.11-.77.15-1.16.06-.58.09-1.17.09-1.76,0-.2,0-.4-.01-.6-.01-.23-.02-.47-.04-.71-.01-.23-.04-.47-.06-.71-.06-.48-.13-.95-.22-1.43l5.45-.61c.1-.02.19-.02.28-.01.09.01.18.03.27.06.17.05.33.14.46.26.07.06.13.12.19.19.11.14.19.31.23.49.03.08.04.18.04.27v.03c.01.18.02.35.02.53Z"/>
      <path class="cls-3" d="M146.18,25.56c-1-4.21-2.4-8.35-4.17-12.3-1.16-2.59-2.49-5.13-3.95-7.55-2.17-3.58-5.96-5.71-10.16-5.71-2.45,0-4.81.75-6.82,2.16-8.56,6.02-16.7,12.79-24.2,20.11-8.8,8.59-16.82,18.06-23.86,28.15-1.07,1.53-2.67,2.56-4.52,2.91-3.96.74-8.01,1.31-12.04,1.67-3.74.33-7.54.5-11.29.5-2.94,0-5.93-.1-8.86-.31-4.27-.3-8.56-.82-12.74-1.55-5.35-.93-10.69-2.22-15.88-3.83-.58-.18-1.17-.27-1.77-.27-1.82,0-3.52.83-4.66,2.28-1.12,1.44-1.52,3.28-1.08,5.06v.04c5.69,23.07,15.23,44.74,28.36,64.41,6.1,9.11,12.97,17.79,20.44,25.78l.59.63c2.59,2.75,5.29,5.46,8.03,8.05,4.19,3.98,8.61,7.83,13.13,11.44,1.98,1.58,4.46,2.44,6.98,2.45,1.71,0,3.42-.41,4.95-1.17,8.93-4.46,17.31-9.98,24.91-16.41,6.83-5.78,13.06-12.32,18.52-19.45.36-.47.67-.96.93-1.46,1.01-1.92,1.38-4.16,1.05-6.28-.06-.41-.15-.82-.26-1.22-.77-2.74-1.9-5.37-3.35-7.82-1.89-3.19-4.28-6.02-7.11-8.4-.12-.1-.15-.26-.09-.39,6.27-12.19,11.96-24.86,16.91-37.64,4.47-11.51,8.44-23.38,11.81-35.29.8-2.81.86-5.78.2-8.59ZM143.68,33.5c-3.1,10.92-6.94,22.69-11.74,35.07-5.37,13.85-11.11,26.33-16.81,37.42-.58,1.12-.3,2.5.67,3.31,2,1.68,4.48,4.22,6.6,7.8,1.54,2.6,2.5,5.1,3.1,7.24.09.3.16.61.2.92.26,1.65-.03,3.34-.8,4.82-.2.39-.45.76-.72,1.12-4.44,5.8-10.39,12.5-18.16,19.07-8.7,7.37-17.25,12.51-24.43,16.09-3.05,1.53-6.7,1.12-9.37-1.01-4.01-3.2-8.4-6.96-12.97-11.3,2.65.94,6.69,2.29,11.72,3.69,3.59,1,5.38,1.5,6.43,1.66,1.86.29,3.74.09,5.59-.45.33-.1.67-.21,1-.33,3.18-1.16,6.26-3.29,9.06-5.75.3-.26.59-.53.88-.79.29-.27.57-.54.86-.81.28-.27.56-.54.83-.82.28-.27.55-.55.81-.82.14-.14.27-.28.4-.42.39-.41.78-.83,1.15-1.24.25-.28.5-.55.74-.82.36-.41.71-.82,1.05-1.22.34-.4.67-.79.99-1.18.32-.38.62-.76.91-1.12.88-1.09,1.65-2.08,2.28-2.89.25-.33.5-.66.75-.98.08-.1.15-.2.23-.29.18-.24.36-.48.55-.72.08-.11.16-.22.25-.33.19-.25.38-.5.57-.74.06-.08.11-.15.17-.23.24-.31.47-.62.7-.92.05-.08.11-.15.16-.22.18-.23.35-.46.52-.69.07-.1.14-.2.21-.3.16-.21.31-.42.46-.63.07-.09.13-.18.2-.27.2-.29.41-.57.61-.86.01-.01.01-.03.02-.04.19-.27.37-.53.55-.79.06-.09.11-.17.17-.26.13-.19.26-.39.38-.58.06-.09.12-.18.17-.27.14-.21.27-.42.4-.63.03-.06.07-.11.1-.17.16-.26.31-.52.46-.78.04-.06.07-.13.11-.19.11-.19.21-.39.31-.58.05-.08.09-.17.13-.25.04-.07.08-.15.12-.22.01-.02.02-.05.03-.07.64-1.39-.21-3.02-1.72-3.25-.03-.01-.05-.01-.08-.02-.11-.01-.23-.02-.35-.04-.1-.01-.2-.02-.3-.03-.35-.03-.69-.07-1.04-.09-.69-.05-1.37-.09-2.06-.11-.34-.01-.69-.01-1.03-.01-.69.01-1.37.04-2.06.09-.68.05-1.37.13-2.04.24-.34.06-.68.12-1.01.19-.91.19-1.81.41-2.71.66-.91.25-1.81.53-2.72.83-1.35.44-2.7.94-4.05,1.44-.45.17-.9.34-1.35.51-1.8.71-3.6,1.43-5.39,2.16-1.79.74-3.58,1.49-5.36,2.25-1.78.76-3.56,1.53-5.33,2.31-1.78.78-3.55,1.56-5.32,2.35-5.71,2.55-11.39,5.18-17.04,7.89-.2-.21-.39-.41-.58-.62,9-4.87,18.12-9.55,27.33-14.02,4.92-2.31,9.7-4.74,14.72-6.73,1.83-.72,3.68-1.39,5.59-1.96.48-.15.96-.29,1.45-.42,2.96-.78,6.1-1,9.15-.91.47.01.94.04,1.4.06.15.01.29.03.43.04.33.02.66.05,1,.08.08.01.16.01.25.02.88.09,1.54-.78,1.23-1.61,0,0,0-.01-.01-.01v-.02c-1.32-3.34-4.51-5.38-7.66-6.63-.43-.17-.85-.32-1.26-.46-.83-.27-1.64-.5-2.4-.68-.95-.23-1.8-.39-2.51-.51-.28-.04-.53-.08-.76-.11-.11-.02-.22-.03-.31-.04-.3-.04-.52-.06-.66-.07-1.17.04-2.4.06-3.69.07-.64,0-1.3-.01-1.98-.02-8.75-.13-19.85-1.32-32.07-5.24-8.24-2.65-15.17-5.96-20.73-9.12,2.76.62,5.53,1.24,8.29,1.86-.81-1.21-1.68-2.66-2.49-4.35-.56-1.18-1.02-2.3-1.39-3.35-.31-.85-.01-1.8.71-2.35,1.72-1.32,3.81-2.73,6.28-4.05,2.12-1.13,4.13-1.99,5.94-2.66,1.11-.4,2.35.09,2.88,1.14,1.11,2.18,2.22,4.7,3.21,7.54.96,2.73,1.65,5.3,2.15,7.62.22,1.05,1.04,1.86,2.08,2.08,2.26.48,4.53.96,6.79,1.43.86.18,1.58-.65,1.28-1.47-.32-.87-.62-1.81-.9-2.82-.21-.78-.38-1.53-.53-2.26-.17-.84-.06-1.71.29-2.49.58-1.27,1.33-2.69,2.32-4.17.98-1.47,1.99-2.71,2.94-3.73.55-.6,1.48-.66,2.11-.14,2.4,1.99,4.98,4.37,7.6,7.19.32.35.63.7.94,1.04.07.08.14.15.2.22.3.34.59.68.88,1.01.05.06.09.11.14.17.27.31.52.62.78.92.04.05.08.11.13.16.27.33.53.66.79.99.06.07.12.14.18.22.26.33.52.66.77.99,0,.01.01.02.02.03.25.32.49.64.72.96.05.07.1.14.15.2.23.32.46.64.68.95.04.05.08.11.12.16.2.29.4.58.6.86.02.03.04.06.06.09.23.34.75.09.64-.3v-.02c-.04-.12-.09-.24-.13-.36-.04-.11-.08-.23-.12-.35-.08-.23-.16-.46-.25-.69-.03-.09-.07-.19-.1-.29-.13-.32-.26-.65-.4-.99-.02-.05-.04-.11-.07-.16-.11-.28-.23-.56-.36-.84-.05-.12-.1-.23-.16-.35-.1-.22-.21-.45-.31-.68-.07-.13-.13-.26-.2-.39-.1-.21-.21-.43-.33-.65-.07-.13-.13-.26-.21-.4-.12-.22-.24-.45-.37-.67-.07-.13-.14-.25-.21-.37-.15-.28-.32-.55-.49-.82-.04-.08-.09-.15-.13-.22-.22-.35-.44-.69-.67-1.03-.07-.1-.13-.19-.2-.28-.17-.25-.35-.5-.53-.75-.09-.13-.19-.25-.28-.37-.16-.22-.33-.44-.51-.66-.1-.13-.2-.26-.31-.39-.17-.21-.35-.42-.54-.63-.1-.13-.21-.25-.32-.38-.2-.22-.41-.44-.62-.66-.1-.11-.2-.22-.3-.32-.31-.33-.64-.65-.97-.96-3.67-3.47-7.84-5.73-9.91-6.85-2.89-1.56-5.54-2.66-7.69-3.44-.8-.29-1.3-1.09-1.18-1.93.28-1.99.38-4.97-.67-8.31-.69-2.21-1.7-3.96-2.6-5.23-.53-.74-1.41-1.14-2.31-1.04-.59.07-1.18.14-1.79.2-.2.02-.4.04-.6.06-.37.04-.73.08-1.1.11-.45.05-.91.09-1.37.13-.26.02-.53.04-.81.07-.28.02-.56.04-.85.07-.32.02-.65.05-.97.07-2.75,5.86-8.7,9.91-15.59,9.91-3.52,0-6.78-1.05-9.51-2.86-2.73-1.81-4.91-4.37-6.24-7.39h-.04c-.24-.02-.48-.05-.71-.07-.26-.03-.51-.05-.76-.08-.58-.06-1.15-.12-1.72-.19-.26-.03-.51-.06-.77-.09-.05,0-.11-.01-.16-.01-.31-.04-.61-.08-.91-.12-.49-.06-.97-.12-1.45-.18-.28-.04-.55-.08-.83-.11-.2-.03-.41-.06-.61-.09,1.58,6.68,5.45,12.88,10.82,17.21.63.54,1.32,1.01,2.12,1.25.78.25,1.59.32,2.42.22,10.84-1.28,21.15-6.49,28.66-14.5-3.37,4.18-7.47,7.82-12.1,10.67-5.07,3.14-10.79,5.37-16.72,6.46-1,.13-2.01.09-3-.15-1.15-.26-2.24-.83-3.2-1.52-3.49-2.41-6.5-5.45-8.9-8.92-2.4-3.48-4.19-7.38-5.24-11.51-.15-.03-.3-.05-.45-.08-.28-.05-.55-.09-.83-.14-.16-.03-.33-.06-.5-.09-.27-.05-.54-.1-.81-.15-.27-.05-.54-.1-.8-.15-.21-.04-.42-.08-.63-.12-.27-.05-.54-.1-.8-.15-.27-.05-.53-.11-.8-.16-.63-.13-1.26-.26-1.88-.39-.2-.04-.4-.09-.61-.13-.2-.04-.4-.09-.6-.13,0-.01-.01-.03-.01-.04-.66-2.67,1.85-5.02,4.47-4.21,4.68,1.45,10.1,2.84,16.18,3.9,4.04.7,8.38,1.25,12.98,1.58,7.5.53,14.4.35,20.53-.2,4.53-.4,8.64-1.01,12.28-1.7,2.44-.45,4.61-1.85,6.03-3.89,5.86-8.4,13.58-18.04,23.57-27.8,8.3-8.1,16.48-14.64,23.91-19.87,4.48-3.15,10.71-1.86,13.54,2.83,1.32,2.18,2.62,4.6,3.82,7.29,1.93,4.32,3.19,8.36,4.03,11.87.57,2.44.51,4.98-.17,7.39Z"/>
      <path class="cls-1" d="M112.28,128.73s-.02.05-.03.07c-.04.07-.08.15-.12.22-.04.08-.08.17-.13.25-.1.19-.2.39-.31.58-.04.06-.07.13-.11.19-.15.26-.3.52-.46.78-.03.06-.07.11-.1.17-.13.21-.26.42-.4.63-.05.09-.11.18-.17.27-.12.19-.25.39-.38.58-.06.09-.11.17-.17.26-.18.26-.36.52-.55.79-.01.01-.01.03-.02.04-.2.29-.41.57-.61.86-.07.09-.13.18-.2.27-.15.21-.3.42-.46.63-.07.1-.14.2-.21.3-.17.23-.34.46-.52.69-.05.07-.11.14-.16.22-.23.3-.46.61-.7.92-.06.08-.11.15-.17.23-.19.24-.38.49-.57.74-.09.11-.17.22-.25.33-.19.24-.37.48-.55.72-.08.09-.15.19-.23.29-.25.32-.5.65-.75.98-.63.81-1.4,1.8-2.28,2.89-.29.36-.59.74-.91,1.12-.32.39-.65.78-.99,1.18-.34.4-.69.81-1.05,1.22-.24.27-.49.54-.74.82-.37.41-.76.83-1.15,1.24-.13.14-.26.28-.4.42-.26.27-.53.55-.81.82-.27.28-.55.55-.83.82-.29.27-.57.54-.86.81-.29.26-.58.53-.88.79-2.8,2.46-5.88,4.59-9.06,5.75-.33.12-.67.23-1,.33-1.85.54-3.73.74-5.59.45-1.05-.16-2.84-.66-6.43-1.66-5.03-1.4-9.07-2.75-11.72-3.69-2.6-2.46-5.25-5.11-7.93-7.95,5.65-2.71,11.33-5.34,17.04-7.89,1.77-.79,3.54-1.57,5.32-2.35,1.77-.78,3.55-1.55,5.33-2.31,1.78-.76,3.57-1.51,5.36-2.25,1.79-.73,3.59-1.45,5.39-2.16.45-.17.9-.34,1.35-.51,1.35-.5,2.7-1,4.05-1.44.91-.3,1.81-.58,2.72-.83.9-.25,1.8-.47,2.71-.66.33-.07.67-.13,1.01-.19.67-.11,1.36-.19,2.04-.24.69-.05,1.37-.08,2.06-.09.34,0,.69,0,1.03.01.69.02,1.37.06,2.06.11.35.02.69.06,1.04.09.1.01.2.02.3.03.12.02.24.03.35.04.03.01.05.01.08.02,1.51.23,2.36,1.86,1.72,3.25Z"/>
      <path class="cls-1" d="M112.06,121.64c-.09-.01-.17-.01-.25-.02-.34-.03-.67-.06-1-.08-.14-.01-.28-.03-.43-.04-.46-.02-.93-.05-1.4-.06-3.05-.09-6.19.13-9.15.91-.49.13-.97.27-1.45.42-1.91.57-3.76,1.24-5.59,1.96-5.02,1.99-9.8,4.42-14.72,6.73-9.21,4.47-18.33,9.15-27.33,14.02-6.74-7.21-13.64-15.66-20.2-25.48C14.45,95.92,6.57,72.8,2.52,56.35c.2.04.4.09.6.13.21.04.41.09.61.13.62.13,1.25.26,1.88.39.27.05.53.11.8.16.26.05.53.1.8.15.21.04.42.08.63.12.26.05.53.1.8.15.27.05.54.1.81.15.17.03.34.06.5.09.28.05.55.09.83.14.15.03.3.05.45.08,1.05,4.13,2.84,8.03,5.24,11.51,2.4,3.47,5.41,6.51,8.9,8.92.96.69,2.05,1.26,3.2,1.52.99.24,2,.28,3,.15,5.93-1.09,11.65-3.32,16.72-6.46,4.63-2.85,8.73-6.49,12.1-10.67-7.51,8.01-17.82,13.22-28.66,14.5-.83.1-1.64.03-2.42-.22-.8-.24-1.49-.71-2.12-1.25-5.37-4.33-9.24-10.53-10.82-17.21.2.03.41.06.61.09.28.03.55.07.83.11.48.06.96.12,1.45.18.3.04.6.08.91.12.05,0,.11.01.16.01.26.03.51.06.77.09.57.07,1.14.13,1.72.19.25.03.5.05.76.08.23.02.47.05.71.07h.04c1.33,3.02,3.51,5.58,6.24,7.39,2.73,1.81,5.99,2.86,9.51,2.86,6.89,0,12.84-4.05,15.59-9.91.32-.02.65-.05.97-.07.29-.03.57-.05.85-.07.28-.03.55-.05.81-.07.46-.04.92-.08,1.37-.13.37-.03.73-.07,1.1-.11.2-.02.4-.04.6-.06.61-.06,1.2-.13,1.79-.2.9-.1,1.78.3,2.31,1.04.9,1.27,1.91,3.02,2.6,5.23,1.05,3.34.95,6.32.67,8.31-.12.84.38,1.64,1.18,1.93,2.15.78,4.8,1.88,7.69,3.44,2.07,1.12,6.24,3.38,9.91,6.85.33.31.66.63.97.96.1.1.2.21.3.32.21.22.42.44.62.66.11.13.22.25.32.38.19.21.37.42.54.63.11.13.21.26.31.39.18.22.35.44.51.66.09.12.19.24.28.37.18.25.36.5.53.75.07.09.13.18.2.28.23.34.45.68.67,1.03.04.07.09.14.13.22.17.27.34.54.49.82.07.12.14.24.21.37.13.22.25.45.37.67.08.14.14.27.21.4.12.22.23.44.33.65.07.13.13.26.2.39.1.23.21.46.31.68.06.12.11.23.16.35.13.28.25.56.36.84.03.05.05.11.07.16.14.34.27.67.4.99.03.1.07.2.1.29.09.23.17.46.25.69.04.12.08.24.12.35.04.12.09.24.13.36v.02c.11.39-.41.64-.64.3-.02-.03-.04-.06-.06-.09-.2-.28-.4-.57-.6-.86-.04-.05-.08-.11-.12-.16-.22-.31-.45-.63-.68-.95-.05-.06-.1-.13-.15-.2-.23-.32-.47-.64-.72-.96-.01-.01-.02-.02-.02-.03-.25-.33-.51-.66-.77-.99-.06-.08-.12-.15-.18-.22-.26-.33-.52-.66-.79-.99-.05-.05-.09-.11-.13-.16-.26-.3-.51-.61-.78-.92-.05-.06-.09-.11-.14-.17-.29-.33-.58-.67-.88-1.01-.06-.07-.13-.14-.2-.22-.31-.34-.62-.69-.94-1.04-2.62-2.82-5.2-5.2-7.6-7.19-.63-.52-1.56-.46-2.11.14-.95,1.02-1.96,2.26-2.94,3.73-.99,1.48-1.74,2.9-2.32,4.17-.35.78-.46,1.65-.29,2.49.15.73.32,1.48.53,2.26.28,1.01.58,1.95.9,2.82.3.82-.42,1.65-1.28,1.47-2.26-.47-4.53-.95-6.79-1.43-1.04-.22-1.86-1.03-2.08-2.08-.5-2.32-1.19-4.89-2.15-7.62-.99-2.84-2.1-5.36-3.21-7.54-.53-1.05-1.77-1.54-2.88-1.14-1.81.67-3.82,1.53-5.94,2.66-2.47,1.32-4.56,2.73-6.28,4.05-.72.55-1.02,1.5-.71,2.35.37,1.05.83,2.17,1.39,3.35.81,1.69,1.68,3.14,2.49,4.35-2.76-.62-5.53-1.24-8.29-1.86,5.56,3.16,12.49,6.47,20.73,9.12,12.22,3.92,23.32,5.11,32.07,5.24.68.01,1.34.02,1.98.02,1.29-.01,2.52-.03,3.69-.07.14.01.36.03.66.07.09.01.2.02.31.04.23.03.48.07.76.11.71.12,1.56.28,2.51.51.76.18,1.57.41,2.4.68.41.14.83.29,1.26.46,3.15,1.25,6.34,3.29,7.66,6.63v.02s.01.01.01.01c.31.83-.35,1.7-1.23,1.61Z"/>
      <path class="cls-1" d="M120.25,48.19c.02,1.2-.03,2.41-.16,3.61-.04.4-.09.8-.15,1.2-.06.4-.13.8-.2,1.2-.12.6-.25,1.2-.4,1.8-.08.3-.17.61-.25.91-.27.91-.57,1.8-.91,2.68-.17.44-.36.87-.55,1.3-.39.86-.81,1.7-1.28,2.52-.69,1.23-1.48,2.4-2.35,3.51-.11.15-.23.3-.35.45-.25.29-.52.56-.83.8-.15.11-.31.22-.47.32-.33.19-.67.35-1.03.46-.36.12-.73.19-1.12.23-1.07.11-2.15.18-3.23.21-.36.01-.72.01-1.08.01-.27,0-.54,0-.81-.01-.33,0-.67-.01-1-.03-.2,0-.4-.02-.61-.03-.04,0-.08,0-.12-.01-.2-.01-.41-.02-.61-.04-.12-.01-.24-.01-.36-.03-.07,0-.13-.01-.19-.01-.06-.01-.12-.01-.18-.02-.07,0-.14-.01-.22-.02-.07-.01-.14-.01-.21-.02-.13,0-.26-.02-.4-.04-.13-.01-.26-.03-.39-.05-.12-.01-.23-.02-.34-.04-.14-.01-.28-.03-.41-.05-.08-.01-.15-.02-.23-.03-.07-.01-.14-.02-.22-.04-.11,0-.23-.03-.34-.05-.12-.02-.25-.04-.37-.06-.14-.02-.29-.05-.43-.07-.1-.02-.2-.04-.3-.06-.16-.02-.32-.05-.48-.09-.09-.01-.18-.03-.27-.05-.17-.03-.34-.06-.5-.1-.81-.17-1.6-.36-2.39-.58-.22-.06-.44-.12-.65-.18-.22-.06-.45-.13-.67-.2-.17-.05-.35-.11-.52-.16-.1-.03-.19-.06-.29-.09-.06-.02-.12-.04-.18-.06-.06-.02-.12-.05-.18-.07-.14-.04-.28-.09-.41-.14-.11-.03-.22-.07-.32-.11-.13-.04-.25-.09-.37-.13-.07-.03-.14-.05-.21-.08-.07-.02-.14-.05-.2-.08-.15-.05-.29-.1-.44-.16-.06-.03-.13-.05-.19-.08-.17-.07-.34-.13-.51-.2-.1-.04-.19-.08-.29-.12-.19-.08-.38-.16-.58-.25-.02-.01-.04-.02-.06-.03-.25-.1-.49-.21-.73-.32-.23-.11-.45-.21-.68-.32-.02-.01-.06-.03-.08-.04-.23-.11-.46-.22-.68-.34-.78-.39-1.54-.8-2.29-1.24-.21-.11-.41-.23-.61-.35-.18-.12-.37-.23-.56-.35,0,0-.01-.01-.02-.01-.74-.49-.81-1.56-.12-2.13l2.63-2.2c.75,1.1,1.61,2.09,2.54,2.98,4.73,4.46,11.44,5.99,17.19,3.33,2.65-1.23,4.75-3.18,6.21-5.57.2-.32.38-.64.56-.97.25-.5.49-1.02.69-1.55.28-.7.5-1.43.68-2.17.09-.38.16-.75.23-1.13.06-.38.11-.77.15-1.16.06-.58.09-1.17.09-1.76,0-.2,0-.4-.01-.6-.01-.23-.02-.47-.04-.71-.01-.23-.04-.47-.06-.71-.06-.48-.13-.95-.22-1.43l5.45-.61c.1-.02.19-.02.28-.01.09.01.18.03.27.06.17.05.33.14.46.26.07.06.13.12.19.19.11.14.19.31.23.49.03.08.04.18.04.27v.03c.01.18.02.35.02.53Z"/>
      <g>
        <path class="cls-2" d="M110.56,125.48c-.14-.02-.29-.04-.43-.06.12.02.24.03.35.04.03.01.05.01.08.02Z"/>
        <path class="cls-2" d="M96.61,100.86v.02c-.04-.12-.08-.25-.13-.38.04.12.09.24.13.36Z"/>
        <path class="cls-3" d="M112.28,128.73s-.02.05-.03.07c-.04.07-.08.15-.12.22-.04.08-.08.17-.13.25-.1.19-.2.39-.31.58-.04.06-.07.13-.11.19-.15.26-.3.52-.46.78-.03.06-.07.11-.1.17-.13.21-.26.42-.4.63-.05.09-.11.18-.17.27-.12.19-.25.39-.38.58-.06.09-.11.17-.17.26-.18.26-.36.52-.55.79-.01.01-.01.03-.02.04-.2.29-.41.57-.61.86-.07.09-.13.18-.2.27-.15.21-.3.42-.46.63-.07.1-.14.2-.21.3-.17.23-.34.46-.52.69-.05.07-.11.14-.16.22-.23.3-.46.61-.7.92-.06.08-.11.15-.17.23-.19.24-.38.49-.57.74-.09.11-.17.22-.25.33-.19.24-.37.48-.55.72-.08.09-.15.19-.23.29-.25.32-.5.65-.75.98-.63.81-1.4,1.8-2.28,2.89-.29.36-.59.74-.91,1.12-.32.39-.65.78-.99,1.18-.34.4-.69.81-1.05,1.22-.24.27-.49.54-.74.82-.37.41-.76.83-1.15,1.24-.13.14-.26.28-.4.42-.26.27-.53.55-.81.82-.27.28-.55.55-.83.82-.29.27-.57.54-.86.81-.29.26-.58.53-.88.79-2.8,2.46-5.88,4.59-9.06,5.75-.33.12-.67.23-1,.33-1.85.54-3.73.74-5.59.45-1.05-.16-2.84-.66-6.43-1.66-5.03-1.4-9.07-2.75-11.72-3.69-2.6-2.46-5.25-5.11-7.93-7.95,5.65-2.71,11.33-5.34,17.04-7.89,1.77-.79,3.54-1.57,5.32-2.35,1.77-.78,3.55-1.55,5.33-2.31,1.78-.76,3.57-1.51,5.36-2.25,1.79-.73,3.59-1.45,5.39-2.16.45-.17.9-.34,1.35-.51,1.35-.5,2.7-1,4.05-1.44.91-.3,1.81-.58,2.72-.83.9-.25,1.8-.47,2.71-.66.33-.07.67-.13,1.01-.19.67-.11,1.36-.19,2.04-.24.69-.05,1.37-.08,2.06-.09.34,0,.69,0,1.03.01.69.02,1.37.06,2.06.11.35.02.69.06,1.04.09.1.01.2.02.3.03.14.02.29.04.43.06,1.51.23,2.36,1.86,1.72,3.25Z"/>
        <path class="cls-3" d="M112.06,121.64c-.09-.01-.17-.01-.25-.02-.34-.03-.67-.06-1-.08-.14-.01-.28-.03-.43-.04-.46-.02-.93-.05-1.4-.06-3.05-.09-6.19.13-9.15.91-.49.13-.97.27-1.45.42-1.91.57-3.76,1.24-5.59,1.96-5.02,1.99-9.8,4.42-14.72,6.73-9.21,4.47-18.33,9.15-27.33,14.02-6.74-7.21-13.64-15.66-20.2-25.48C14.45,95.92,6.57,72.8,2.52,56.35c.2.04.4.09.6.13.21.04.41.09.61.13.62.13,1.25.26,1.88.39.27.05.53.11.8.16.26.05.53.1.8.15.21.04.42.08.63.12.26.05.53.1.8.15.27.05.54.1.81.15.17.03.34.06.5.09.28.05.55.09.83.14.15.03.3.05.45.08,1.05,4.13,2.84,8.03,5.24,11.51,2.4,3.47,5.41,6.51,8.9,8.92.96.69,2.05,1.26,3.2,1.52.99.24,2,.28,3,.15,5.93-1.09,11.65-3.32,16.72-6.46,4.63-2.85,8.73-6.49,12.1-10.67-7.51,8.01-17.82,13.22-28.66,14.5-.83.1-1.64.03-2.42-.22-.8-.24-1.49-.71-2.12-1.25-5.37-4.33-9.24-10.53-10.82-17.21.2.03.41.06.61.09.28.03.55.07.83.11.48.06.96.12,1.45.18.3.04.6.08.91.12.05,0,.11.01.16.01.26.03.51.06.77.09.57.07,1.14.13,1.72.19.25.03.5.05.76.08.23.02.47.05.71.07h.04c1.33,3.02,3.51,5.58,6.24,7.39,2.73,1.81,5.99,2.86,9.51,2.86,6.89,0,12.84-4.05,15.59-9.91.32-.02.65-.05.97-.07.29-.03.57-.05.85-.07.28-.03.55-.05.81-.07.46-.04.92-.08,1.37-.13.37-.03.73-.07,1.1-.11.2-.02.4-.04.6-.06.61-.06,1.2-.13,1.79-.2.9-.1,1.78.3,2.31,1.04.9,1.27,1.91,3.02,2.6,5.23,1.05,3.34.95,6.32.67,8.31-.12.84.38,1.64,1.18,1.93,2.15.78,4.8,1.88,7.69,3.44,2.07,1.12,6.24,3.38,9.91,6.85.33.31.66.63.97.96.1.1.2.21.3.32.21.22.42.44.62.66.11.13.22.25.32.38.19.21.37.42.54.63.11.13.21.26.31.39.18.22.35.44.51.66.09.12.19.24.28.37.18.25.36.5.53.75.07.09.13.18.2.28.23.34.45.68.67,1.03.04.07.09.14.13.22.17.27.34.54.49.82.07.12.14.24.21.37.13.22.25.45.37.67.08.14.14.27.21.4.12.22.23.44.33.65.07.13.13.26.2.39.1.23.21.46.31.68.06.12.11.23.16.35.13.28.25.56.36.84.03.05.05.11.07.16.14.34.27.67.4.99.03.1.07.2.1.29.09.23.17.46.25.69.04.12.08.24.12.35.05.13.09.26.13.38.11.39-.41.64-.64.3-.02-.03-.04-.06-.06-.09-.2-.28-.4-.57-.6-.86-.04-.05-.08-.11-.12-.16-.22-.31-.45-.63-.68-.95-.05-.06-.1-.13-.15-.2-.23-.32-.47-.64-.72-.96-.01-.01-.02-.02-.02-.03-.25-.33-.51-.66-.77-.99-.06-.08-.12-.15-.18-.22-.26-.33-.52-.66-.79-.99-.05-.05-.09-.11-.13-.16-.26-.3-.51-.61-.78-.92-.05-.06-.09-.11-.14-.17-.29-.33-.58-.67-.88-1.01-.06-.07-.13-.14-.2-.22-.31-.34-.62-.69-.94-1.04-2.62-2.82-5.2-5.2-7.6-7.19-.63-.52-1.56-.46-2.11.14-.95,1.02-1.96,2.26-2.94,3.73-.99,1.48-1.74,2.9-2.32,4.17-.35.78-.46,1.65-.29,2.49.15.73.32,1.48.53,2.26.28,1.01.58,1.95.9,2.82.3.82-.42,1.65-1.28,1.47-2.26-.47-4.53-.95-6.79-1.43-1.04-.22-1.86-1.03-2.08-2.08-.5-2.32-1.19-4.89-2.15-7.62-.99-2.84-2.1-5.36-3.21-7.54-.53-1.05-1.77-1.54-2.88-1.14-1.81.67-3.82,1.53-5.94,2.66-2.47,1.32-4.56,2.73-6.28,4.05-.72.55-1.02,1.5-.71,2.35.37,1.05.83,2.17,1.39,3.35.81,1.69,1.68,3.14,2.49,4.35-2.76-.62-5.53-1.24-8.29-1.86,5.56,3.16,12.49,6.47,20.73,9.12,12.22,3.92,23.32,5.11,32.07,5.24.68.01,1.34.02,1.98.02,1.29-.01,2.52-.03,3.69-.07.14.01.36.03.66.07.09.01.2.02.31.04.23.03.48.07.76.11.71.12,1.56.28,2.51.51.76.18,1.57.41,2.4.68.41.14.83.29,1.26.46,3.15,1.25,6.34,3.29,7.66,6.63v.02s.01.01.01.01c.31.83-.35,1.7-1.23,1.61Z"/>
        <path class="cls-3" d="M120.25,48.19c.02,1.2-.03,2.41-.16,3.61-.04.4-.09.8-.15,1.2-.06.4-.13.8-.2,1.2-.12.6-.25,1.2-.4,1.8-.08.3-.17.61-.25.91-.27.91-.57,1.8-.91,2.68-.17.44-.36.87-.55,1.3-.39.86-.81,1.7-1.28,2.52-.69,1.23-1.48,2.4-2.35,3.51-.11.15-.23.3-.35.45-.25.29-.52.56-.83.8-.15.11-.31.22-.47.32-.33.19-.67.35-1.03.46-.36.12-.73.19-1.12.23-1.07.11-2.15.18-3.23.21-.36.01-.72.01-1.08.01-.27,0-.54,0-.81-.01-.33,0-.67-.01-1-.03-.2,0-.4-.02-.61-.03-.04,0-.08,0-.12-.01-.2-.01-.41-.02-.61-.04-.12-.01-.24-.01-.36-.03-.07,0-.13-.01-.19-.01-.06-.01-.12-.01-.18-.02-.07,0-.14-.01-.22-.02-.07-.01-.14-.01-.21-.02-.13,0-.26-.02-.4-.04-.13-.01-.26-.03-.39-.05-.12-.01-.23-.02-.34-.04-.14-.01-.28-.03-.41-.05-.08-.01-.15-.02-.23-.03-.07-.01-.14-.02-.22-.04-.11,0-.23-.03-.34-.05-.12-.02-.25-.04-.37-.06-.14-.02-.29-.05-.43-.07-.1-.02-.2-.04-.3-.06-.16-.02-.32-.05-.48-.09-.09-.01-.18-.03-.27-.05-.17-.03-.34-.06-.5-.1-.81-.17-1.6-.36-2.39-.58-.22-.06-.44-.12-.65-.18-.22-.06-.45-.13-.67-.2-.17-.05-.35-.11-.52-.16-.1-.03-.19-.06-.29-.09-.06-.02-.12-.04-.18-.06-.06-.02-.12-.05-.18-.07-.14-.04-.28-.09-.41-.14-.11-.03-.22-.07-.32-.11-.13-.04-.25-.09-.37-.13-.07-.03-.14-.05-.21-.08-.07-.02-.14-.05-.2-.08-.15-.05-.29-.1-.44-.16-.06-.03-.13-.05-.19-.08-.17-.07-.34-.13-.51-.2-.1-.04-.19-.08-.29-.12-.19-.08-.38-.16-.58-.25-.02-.01-.04-.02-.06-.03-.25-.1-.49-.21-.73-.32-.23-.11-.45-.21-.68-.32-.02-.01-.06-.03-.08-.04-.23-.11-.46-.22-.68-.34-.78-.39-1.54-.8-2.29-1.24-.21-.11-.41-.23-.61-.35-.18-.12-.37-.23-.56-.35,0,0-.01-.01-.02-.01-.74-.49-.81-1.56-.12-2.13l2.63-2.2c.75,1.1,1.61,2.09,2.54,2.98,4.73,4.46,11.44,5.99,17.19,3.33,2.65-1.23,4.75-3.18,6.21-5.57.2-.32.38-.64.56-.97.25-.5.49-1.02.69-1.55.28-.7.5-1.43.68-2.17.09-.38.16-.75.23-1.13.06-.38.11-.77.15-1.16.06-.58.09-1.17.09-1.76,0-.2,0-.4-.01-.6-.01-.23-.02-.47-.04-.71-.01-.23-.04-.47-.06-.71-.06-.48-.13-.95-.22-1.43l5.45-.61c.1-.02.19-.02.28-.01.09.01.18.03.27.06.17.05.33.14.46.26.07.06.13.12.19.19.11.14.19.31.23.49.03.08.04.18.04.27v.03c.01.18.02.35.02.53Z"/>
      </g>
    </g>
  </g>
</svg>